<?xml version="1.0" encoding="UTF-8"?>
<svg id="Layer_2" data-name="Layer 2" xmlns="http://www.w3.org/2000/svg" viewBox="0 0 377.13 361.61">
  <defs>
    <style>
      .cls-1 {
        fill: #94c7cc;
      }

      .cls-1, .cls-2, .cls-3, .cls-4, .cls-5, .cls-6, .cls-7, .cls-8, .cls-9, .cls-10, .cls-11 {
        stroke-width: 0px;
      }

      .cls-2 {
        fill: #1f606c;
      }

      .cls-3 {
        fill: #30707f;
      }

      .cls-4 {
        fill: #0d242a;
      }

      .cls-5 {
        fill: #134b57;
      }

      .cls-6 {
        fill: #60aab7;
      }

      .cls-7 {
        fill: #478694;
      }

      .cls-8 {
        fill: #4e9aa9;
      }

      .cls-9 {
        fill: #dbedee;
      }

      .cls-10 {
        fill: #f4f1ea;
      }

      .cls-11 {
        fill: #b5d9db;
      }
    </style>
  </defs>
  <g id="Layer_1-2" data-name="Layer 1">
    <g>
      <path class="cls-4" d="m285.45,291.66c8.04,18.71-8.43,40.63-28.75,36.5-2.48.46-19.93,24.9-45,9-.4.41-.68.78-1.25,1-3.39,1.28-38.04,34.31-58.5-10.5.6,0,.29-.98,11.5-1,6.28,0,12.66.55,19,.5,16.3-.12,65.19.86,73.5,0,17.7-1.83,33.82-20.76,20-36.5-.72-.82-1.15-1.3-2-2-5.75-4.75-11.46-6.61-18.75-4-2.58-.47,5.91-8.16,15.5-6,5.31,1.2,12.59,7.97,14.75,13Z"/>
      <path class="cls-8" d="m110.95,246.16c5.57,10.04,13.3,16.41,24,20.5-4.55,1.82-9.41,10.06-8.75,15-3.8,1.92-9.03,3.95-13.25,2.5-1.89-.65-10.39-9.61-11.5-11.5-4.26-7.24-4.32-19.09-5.25-19.5-14.26.17-28.56-.57-42.75,1-3.29-2.95-6.86-5.51-10.5-8,11.45.86,51.27,0,68,0Z"/>
      <path class="cls-6" d="m101.45,272.66c-6.94.93-14.19.86-21-.5-14.64-2.92-17.34-9.34-27-18,14.19-1.57,28.49-.83,42.75-1,.93.41.99,12.26,5.25,19.5Z"/>
      <path class="cls-6" d="m308.45,101.66c2.84.75,6.82,2.73,9.25,4.5,14.36-3.28,33.32,10.13,33.75,25-.25-.35-1.66-3.86-4.5-7.25-13.67-16.28-46.61-24.17-66-2.75-1.35,1.5-2.74,2.9-4,4.5-.87-2.66-1.79-5.48-3-8,6.23-2.97,6.37-13.89,12.5-17,5.78-2.93,15.95-.6,22,1Z"/>
      <g>
        <path class="cls-7" d="m151.95,327.66c20.46,44.81,55.11,11.78,58.5,10.5-2.19,7.83-7.81,13.37-14.5,17.5.96-8.47-9.8,9.86-33.25-2.5-9.97-5.26-15.7-14.96-18.75-25.5,2.67,0,5.33,0,8,0Z"/>
        <path class="cls-8" d="m143.95,327.66c3.05,10.54,8.78,20.24,18.75,25.5,23.45,12.36,34.21-5.97,33.25,2.5-24.27,14.96-52.29.2-54.5-27.5-.07-.74,1.14-.5,2.5-.5Z"/>
      </g>
      <path class="cls-1" d="m42.95,246.16c3.64,2.49,7.21,5.05,10.5,8,9.66,8.66,12.36,15.08,27,18-18.78,1.31-31.58-10.85-40.5-26,.96.13,2.02-.07,3,0Z"/>
      <g>
        <path class="cls-10" d="m183.95,1.16c1.14.77,7.11,10.55,7.5,13-11.92-.07-22.28,4.26-30.5,13-.05.05-.96.46-1,.5-14.13-.8-22.44,14.05-28.75,20-9.53,8.99-22.23,13.58-28,26-28.31-17.51-43.3,7.87-37.25,34.75-9.47,20.61-17.37,12.56-31.25,24.25-17.06,14.36-26.03,45.51-10.5,63.5,5.15-6.33,13.17-7.67,20.5-4.5,1.1-.3,3.46-10.79,14.75-12l1-.25c5.8-25.66,32.28-45.48,58.75-41.75,2.71-13.77,8.6-23.15,17.75-33.5,5.48-6.2,11.49-12.06,18.5-16.5,7.58-4.8,16.31-8.34,25-10.5,9.36-2.33,18.86-3.6,28.5-3,3.12.2,6.42.93,9.5,1.5,22.77,4.25,45.42,21.01,55.5,42,1.21,2.52,2.13,5.34,3,8,1.83,5.6,3.32,11.29,3.5,17.25-38.31-.25-33.86,30.01-50.75,27.25-8.98-1.47-8.52-14.25-17.5-19.5-8.02-4.69-18.84-3.87-27,0-18.66,8.84-21.2,31.03-23.25,34.25-11.23,17.67-29.55-14.06-50.75,9.75-20.87-7.54-29.73,11.63-32.5,13-4.43,2.19-11.59-3.83-16-4.5-17.98-2.72-18.38,10.29-30.5,10.5-1.06.02-9.76-3.47-14.25,2.5-.53-9.32.46-11.55,5-19.75-44.68-26.94-18.24-86.86,29-88-6.01-30.68,19.18-62.49,50.75-49.25,4.32-6.88,8.92-5.28,9.25-5.75,1.28-19.8,19.96-40.46,37.75-47.75,6.57-2.69,29.04-8.01,34.25-4.5Z"/>
        <path class="cls-11" d="m290.45,121.66c11.99,3.76,13.69,20.22,8,29.75,2.47,1.47,4.92,3.49,7.5,4.75-2.16,2.95,5.75,11.52,4,22.5-13.04-6.27-30.31-3.58-41.75,5-11.89,8.92-11.86,23.95-31,20.5-5.96-1.07-15.58-9.43-34.5-5-14.59,3.42-25.82,20.57-30,23-7.97,4.63-45.51.33-53.5,2-1.55.32-5.11,3.79-6,4-4.52,1.05-78.65-.8-92.75,0-1.76-4.86-2.23-7.14-2.5-12,4.49-5.97,13.19-2.48,14.25-2.5,12.12-.21,12.52-13.22,30.5-10.5,4.41.67,11.57,6.69,16,4.5,2.77-1.37,11.63-20.54,32.5-13,21.2-23.81,39.52,7.92,50.75-9.75,2.05-3.22,4.59-25.41,23.25-34.25,8.16-3.87,18.98-4.69,27,0,8.98,5.25,8.52,18.03,17.5,19.5,16.89,2.76,12.44-27.5,50.75-27.25-.18-5.96-1.67-11.65-3.5-17.25,1.26-1.6,2.65-3,4-4.5,4.23-.61,5.47-.76,9.5.5Z"/>
        <path class="cls-1" d="m339.45,200.16c-.13,1.52-1.05,4.77-1.5,6.5-.97,3.68-3,8.27-5,11.5-5.09,8.24-15,16.25-24.75,17.5-13.77,1.76-110.91-1.62-116.5,0-1.63.47.79,1.21.25,2.5-9.09-2.45-20.52,1.3-27.5,7.5-17.82.92-35.67.49-53.5.5-16.73,0-56.55.86-68,0-.98-.07-2.04.13-3,0-9.65-1.29-16.66-10.13-19.5-18,14.1-.8,88.23,1.05,92.75,0,.89-.21,4.45-3.68,6-4,7.99-1.67,45.53,2.63,53.5-2,4.18-2.43,15.41-19.58,30-23,18.92-4.43,28.54,3.93,34.5,5,19.14,3.45,19.11-11.58,31-20.5,11.44-8.58,28.71-11.27,41.75-5,14.52,6.99,16.29,22.29,17.75,22.5,5.47-7.79,3.24-20.95-.75-29.25-2.45-5.1-7.23-8.55-6-9.75,14.1,8.36,19.92,21.64,18.5,38Z"/>
        <path class="cls-1" d="m274.95,74.16c.1,4.33-.83,9.43-1.5,13.75l9,.25c-1.73,7.35-1.17,6.54,4,12.5-6.13,3.11-6.27,14.03-12.5,17-10.08-20.99-32.73-37.75-55.5-42,5.35-.68,3.77-8.14,6.5-12.25.07-.96-1.53-2.74-1-7.5.19-1.66,3.27-8.92,4-9.75.18.82,1,1.23,1.75,1,4.69-1.46,0-4.1,20.75-4.5.67-.01,2.62-.56,3.25-1,16.16-.92,20.97,19.96,21.25,32.5Z"/>
        <g>
          <path class="cls-6" d="m250.45,42.66c-20.75.4-16.06,3.04-20.75,4.5-.75.23-1.57-.18-1.75-1,.2-1.79-.5-1.42-.5-1.5-.06-8.8-3.91-16.3-10.5-22l-1.5-12c18.92,11.25,17.3,22.95,18.75,23.5,7.76-3.12,14.58.41,16.25,8.5Z"/>
          <path class="cls-1" d="m215.45,10.66l1.5,12c-7.16-6.19-16.12-8.45-25.5-8.5-.39-2.45-6.36-12.23-7.5-13,11.16.44,21.94,3.82,31.5,9.5Z"/>
        </g>
        <g>
          <path class="cls-10" d="m307.95,95.66c-2.49-1.24-3.43-4.02-5.75-5.5-8.25-5.25-24.27-4.46-18.75-2.75-.38.44-.82-.02-1,.75l-9-.25c.67-4.32,1.6-9.42,1.5-13.75,15.42-1.54,29.5,5.6,33,21.5Z"/>
          <path class="cls-9" d="m307.95,95.66c.36,1.63.45,4.26.5,6-6.05-1.6-16.22-3.93-22-1-5.17-5.96-5.73-5.15-4-12.5.18-.77.62-.31,1-.75-5.52-1.71,10.5-2.5,18.75,2.75,2.32,1.48,3.26,4.26,5.75,5.5Z"/>
        </g>
        <path class="cls-9" d="m159.95,27.66c-6.4,7.33-10.22,20.46-6.5,29.75-9.65,7.57-5.68,22.49,2,30.25-7.01,4.44-13.02,10.3-18.5,16.5-23.78-13.85-50.27-3.85-65.5,17.75-12.51,17.74-13.58,36.67-12,57.75-11.29,1.21-13.65,11.7-14.75,12-7.33-3.17-15.35-1.83-20.5,4.5-15.53-17.99-6.56-49.14,10.5-63.5,13.88-11.69,21.78-3.64,31.25-24.25-6.05-26.88,8.94-52.26,37.25-34.75,5.77-12.42,18.47-17.01,28-26,6.31-5.95,14.62-20.8,28.75-20Z"/>
        <path class="cls-11" d="m191.45,14.16c9.38.05,18.34,2.31,25.5,8.5,6.59,5.7,10.44,13.2,10.5,22-14.37,1.71-20.1,16.43-18.5,29.5-9.64-.6-19.14.67-28.5,3-1.54-5.23-2.25-8.76-5-13.25,4.68-7.05,2.49-17.24-4-22,6.63-8.24-1.19-15.95-10.5-14.75,8.22-8.74,18.58-13.07,30.5-13Z"/>
        <path class="cls-11" d="m136.95,104.16c-9.15,10.35-15.04,19.73-17.75,33.5-26.47-3.73-52.95,16.09-58.75,41.75l-1,.25c-1.58-21.08-.51-40.01,12-57.75,15.23-21.6,41.72-31.6,65.5-17.75Z"/>
        <path class="cls-11" d="m180.45,77.16c-8.69,2.16-17.42,5.7-25,10.5-7.68-7.76-11.65-22.68-2-30.25-3.72-9.29.1-22.42,6.5-29.75.04-.04.95-.45,1-.5,9.31-1.2,17.13,6.51,10.5,14.75,6.49,4.76,8.68,14.95,4,22,2.75,4.49,3.46,8.02,5,13.25Z"/>
        <path class="cls-1" d="m227.45,44.66c0,.08.7-.29.5,1.5-.73.83-3.81,8.09-4,9.75-.53,4.76,1.07,6.54,1,7.5-2.73,4.11-1.15,11.57-6.5,12.25-3.08-.57-6.38-1.3-9.5-1.5-1.6-13.07,4.13-27.79,18.5-29.5Z"/>
        <g>
          <g>
            <path class="cls-1" d="m375.45,161.16c.07-.29-.04-.68,0-1,1.01-.47,1.4,2.69,1.5,3.75,1.2,12.19-3.75,25.29-12,34.25-2.6-.2,8.67-17.3,5.25-17-7.75,9.69-18.13,17.51-30.75,19,1.42-16.36-4.4-29.64-18.5-38-.2-.12-.51-1.37-.75-1.5-2.18-1.15-5.66-1.83-8.25-3,8.01-11.12,24.44-8.76,23.75,7l8.5-6c8.56,4.24,9.86,5.43.25,10.25l11.25,1.75c5.62-8.62,7.89-8.65,17-4,1.03-1.78,2.29-3.43,2.75-5.5Z"/>
            <path class="cls-6" d="m364.95,198.16c-1.99,2.16-4.26,4.78-7,6-6.55,1.31-13.27,4.07-20,2.5.45-1.73,1.37-4.98,1.5-6.5,12.62-1.49,23-9.31,30.75-19,3.42-.3-7.85,16.8-5.25,17Z"/>
            <path class="cls-8" d="m357.95,204.16c-.81,1.4-2.34,1.97-3.5,3-.77.68-1.3,1.31-2,2-6.92,6.82-7.27,9.93-19.5,9,2-3.23,4.03-7.82,5-11.5,6.73,1.57,13.45-1.19,20-2.5Z"/>
          </g>
          <g>
            <path class="cls-10" d="m351.45,131.16c.52.72.92,2.26,1.25,2.5,10.97,1.96,24.14,15.29,22.75,26.5-.04.32.07.71,0,1-1.61-.24,0-2.21-.5-4.25-.25-1.03-2.3-3.08-2.5-3.5-4.81-10.07-9.33-12.12-19.75-16.25-4.95-8.5-13.59-17.89-23-21.5-10.19-3.91-19.6-3.35-29.5,1-3.68,1.61-5.8,5.12-9.75,5-4.03-1.26-5.27-1.11-9.5-.5,19.39-21.42,52.33-13.53,66,2.75,2.84,3.39,4.25,6.9,4.5,7.25Z"/>
            <path class="cls-9" d="m375.45,161.16c-.46,2.07-1.72,3.72-2.75,5.5-9.11-4.65-11.38-4.62-17,4l-11.25-1.75c9.61-4.82,8.31-6.01-.25-10.25l-8.5,6c.69-15.76-15.74-18.12-23.75-7-.3-.13-.71,1.08-6-1.5-2.58-1.26-5.03-3.28-7.5-4.75,5.69-9.53,3.99-25.99-8-29.75,3.95.12,6.07-3.39,9.75-5,9.9-4.35,19.31-4.91,29.5-1,9.41,3.61,18.05,13,23,21.5,10.42,4.13,14.94,6.18,19.75,16.25.2.42,2.25,2.47,2.5,3.5.5,2.04-1.11,4.01.5,4.25Z"/>
          </g>
        </g>
        <path class="cls-11" d="m311.95,157.66c2.59,1.17,6.07,1.85,8.25,3,.24.13.55,1.38.75,1.5-1.23,1.2,3.55,4.65,6,9.75,3.99,8.3,6.22,21.46.75,29.25-1.46-.21-3.23-15.51-17.75-22.5,1.75-10.98-6.16-19.55-4-22.5,5.29,2.58,5.7,1.37,6,1.5Z"/>
      </g>
      <g>
        <path class="cls-7" d="m285.45,291.66c-2.16-5.03-9.44-11.8-14.75-13-9.59-2.16-18.08,5.53-15.5,6,7.29-2.61,13-.75,18.75,4-10.4,1.43-13.83,11.98-28,3,3.66-8.66.78-13.85-2.5-21.5-.14-.34.53-.68.5-.75-2.45-5.29-9-13.61-14.5-15.75,0-.35-.13-.87.25-1,4.09-1.42,74,3,86.5-.5,6.38-1.78,12.97-8.81,17.5-13.5,24.27,9.13,41.87-18.43,18.75-29.5.7-.69,1.23-1.32,2-2,28.99,17.95,15.47,64.38-21.25,55.5-3.99,22.65-26.07,33.93-47.75,29Z"/>
        <path class="cls-3" d="m229.45,253.66c-6.76-2.63-11.22-1.31-18,0,.38-6.84-9.17-10.76-14.5-13-1.78-.75-3.09-1.99-5-2.5.54-1.29-1.88-2.03-.25-2.5,5.59-1.62,102.73,1.76,116.5,0,9.75-1.25,19.66-9.26,24.75-17.5,12.23.93,12.58-2.18,19.5-9,23.12,11.07,5.52,38.63-18.75,29.5-4.53,4.69-11.12,11.72-17.5,13.5-12.5,3.5-82.41-.92-86.5.5-.38.13-.25.65-.25,1Z"/>
      </g>
      <path class="cls-7" d="m164.45,245.66c-6.37,5.66-10.73,15.1-11.25,23.5-4.51-3.77-12.95-4.61-18.25-2.5-10.7-4.09-18.43-10.46-24-20.5,17.83,0,35.68.42,53.5-.5Z"/>
      <path class="cls-2" d="m273.95,288.66c.85.7,1.28,1.18,2,2,6.5,20.2-7.34,25.65-20,36.5-8.31.86-57.2-.12-73.5,0,2.77-9.97,2.51-10.76,9-16,.91-.73,2.16-.5,2.75-1,8.45-7.14,13.71-17.11,28-15,4.73.7,17.28,11.8,23.75-3.5,14.17,8.98,17.6-1.57,28-3Z"/>
      <path class="cls-2" d="m229.45,253.66c5.5,2.14,12.05,10.46,14.5,15.75.03.07-.64.41-.5.75-4.78-4.8-12.27-6.93-18.25-3.5-2.02-2.25-3.36-3.55-6.25-4.5-3.37-1.1-5.25-1.15-8.75-1-5.39.22-2.83,2.42-.25-4,.36-.9,1.45-2.58,1.5-3.5,6.78-1.31,11.24-2.63,18,0Z"/>
      <path class="cls-5" d="m255.95,327.16c12.66-10.85,26.5-16.3,20-36.5,13.82,15.74-2.3,34.67-20,36.5Z"/>
      <g>
        <path class="cls-10" d="m191.95,238.16c1.91.51,3.22,1.75,5,2.5-4.19,2.87-10.36-.03-19.75,7-5.58,4.18-12.63,14.83-11.75,22-3.83,3.48-6.36,11.59-3,16-3.38,2.25-9.6.56-13.25,12-5.48-5.53-15.72-6.26-21,0-13.5-6.8-14.73,2.97-15.5,3.5-.58.4-5.94-.97-11.25,7.5-4.26-3.1-16.18-1.51-19,3.5-1.65-12.49,14.68-14.9,23.75-12.5.95-5.71,3.66-10.68,6.75-15.5,4.22,1.45,9.45-.58,13.25-2.5-.66-4.94,4.2-13.18,8.75-15,5.3-2.11,13.74-1.27,18.25,2.5.52-8.4,4.88-17.84,11.25-23.5,6.98-6.2,18.41-9.95,27.5-7.5Z"/>
        <path class="cls-8" d="m133.45,310.66c-3.84,2.55-6.55,6.07-9.5,9.5-2.13,2.47-4.32,4.63-6,7.5-10.06-.14-35.65,4.16-36.5-10.5.42,3.72,5.78-3.18,11.25-4,4.22-.63,9.01.6,13.25,1,10.16.96,9.1,5.73,19.75-6.5l7.75,3Z"/>
        <path class="cls-7" d="m176.45,314.16c-.02,1.77-5.59,1.77-8.25,4-1.57,1.31-3.69,6.29-4.75,8.5-11.21.02-10.9,1-11.5,1-2.67,0-5.33,0-8,0-1.36,0-2.57-.24-2.5.5-7.78-.99-15.68-.39-23.5-.5,1.68-2.87,3.87-5.03,6-7.5,11.99,3.36,15.76-2.17,25.5-5.5,9.92-3.39,17.95-6.98,27-.5Z"/>
        <path class="cls-6" d="m101.45,308.66c1.62,1.18,1.39,3.69,4.5,5.5-4.24-.4-9.03-1.63-13.25-1-5.47.82-10.83,7.72-11.25,4-.13-2.2-.09-3.07,1-5,2.82-5.01,14.74-6.6,19-3.5Z"/>
        <path class="cls-7" d="m243.45,270.16c3.28,7.65,6.16,12.84,2.5,21.5-6.47,15.3-19.02,4.2-23.75,3.5-14.29-2.11-19.55,7.86-28,15-.59.5-1.84.27-2.75,1-5.04-2.28-10.28,4.06-15,3-9.05-6.48-17.08-2.89-27,.5-4.41-3.53-12.64-4.69-11-7,1.83-.54,3.96-1.03,5.75,0,2.33-9.03,4.54-4.18,8-5.5,1.52-.58,2.18-9.25,11-10.5,20.91,8.32,11.55-2.4,25.5-9.5,17.57,2.89,6.65-3.18,14.75-13.25,6.41-7.97,16.51-3.45,15.5-6.75,2.89.95,4.23,2.25,6.25,4.5,5.98-3.43,13.47-1.3,18.25,3.5Z"/>
        <path class="cls-3" d="m191.45,311.16c-6.49,5.24-6.23,6.03-9,16-6.34.05-12.72-.51-19-.5,1.06-2.21,3.18-7.19,4.75-8.5,2.66-2.23,8.23-2.23,8.25-4,4.72,1.06,9.96-5.28,15-3Z"/>
        <path class="cls-1" d="m209.95,257.16c-2.58,6.42-5.14,4.22.25,4,3.5-.15,5.38-.1,8.75,1,1.01,3.3-9.09-1.22-15.5,6.75-8.1,10.07,2.82,16.14-14.75,13.25-13.95,7.1-4.59,17.82-25.5,9.5-8.82,1.25-9.48,9.92-11,10.5-3.46,1.32-5.67-3.53-8,5.5-1.79-1.03-3.92-.54-5.75,0-.92.27-3.84,2.23-5,3l-7.75-3c-10.65,12.23-9.59,7.46-19.75,6.5-3.11-1.81-2.88-4.32-4.5-5.5,5.31-8.47,10.67-7.1,11.25-7.5.77-.53,2-10.3,15.5-3.5,5.28-6.26,15.52-5.53,21,0,3.65-11.44,9.87-9.75,13.25-12,8.44-10.09,30.41-15.35,38-20.5,5.46-3.71,5.21-8.46,9.5-8Z"/>
        <path class="cls-11" d="m211.45,253.66c-.05.92-1.14,2.6-1.5,3.5-4.29-.46-4.04,4.29-9.5,8-9.06-5.23-27.72-2.11-35,4.5-.88-7.17,6.17-17.82,11.75-22,9.39-7.03,15.56-4.13,19.75-7,5.33,2.24,14.88,6.16,14.5,13Z"/>
        <path class="cls-11" d="m200.45,265.16c-7.59,5.15-29.56,10.41-38,20.5-3.36-4.41-.83-12.52,3-16,7.28-6.61,25.94-9.73,35-4.5Z"/>
        <path class="cls-7" d="m149.45,314.66c-9.74,3.33-13.51,8.86-25.5,5.5,2.95-3.43,5.66-6.95,9.5-9.5,1.16-.77,4.08-2.73,5-3-1.64,2.31,6.59,3.47,11,7Z"/>
      </g>
    </g>
  </g>
</svg>