<?xml version="1.0" encoding="UTF-8"?>
<svg id="Layer_2" data-name="Layer 2" xmlns="http://www.w3.org/2000/svg" viewBox="0 0 413.75 307.36">
  <defs>
    <style>
      .cls-1 {
        fill: #0c7899;
      }

      .cls-1, .cls-2, .cls-3, .cls-4, .cls-5, .cls-6 {
        stroke-width: 0px;
      }

      .cls-2 {
        fill: #178eb1;
      }

      .cls-3 {
        fill: #64b8cf;
      }

      .cls-4 {
        fill: #46a8c4;
      }

      .cls-5 {
        fill: #015776;
      }

      .cls-6 {
        fill: #fbf6f1;
      }
    </style>
  </defs>
  <g id="Layer_1-2" data-name="Layer 1">
    <g>
      <path class="cls-3" d="m307.96,196.29c-.34-10.95-6.8-17.62-18-15,1.79-17-13.97-26.26-26-13.5-7.61-4.04-13.01-1.43-18.5,4.5.52-18.18-16.29-21.44-30-12.5,3.39-29.29-22.78-41.56-45-23,2.74-71.54-71.67-89.17-97.75-39,24.06,4.2,32.98-4.49,47.25,19.5,3.11,1.68,10.8-1.63,14.25,3.75,5.13,7.99-7.06,12.26,3.5,27,7.2,10.05,24.89,15.51,36.5,10.5l5,13.5c-16.07,5.97-9.27,14.62,5.75,11.25.96.21,6.56,9.4,15,8,7.65,5.31,23.38,6.55,33,7.5l1.25,11.75c.27.32,4.11,1.08,5,1.25,3.55,4.27,7.63.36,5,6.75-3.3,1.19-6.36.86-9.87.77.97.07,1.95.25,2.87.48.95.23,6.29,1.8,6.5,2.25v11.5c15.66-1.74,60.77-6.57,72.25-12.75,1.83-.98,6.74-4.82,7.75-6.5.02-.03.2.19.5-.5,1.15-2.66.75-8.64,0-11.5-3.3-6.63-9.38-9.69-16.25-6Z"/>
      <path class="cls-6" d="m199.21,113.04c.12-5.39,1.24-11.3,3.5-16.25,4.72-10.33,14.7-17.01,26-16.5,4.29.19,5.8,1.48,6,1.25,1.14-6.61,5.31-13.97,9.5-19.25,9.88-12.45,27.33-22.41,43.25-17,14.77-62.13,95.72-44.3,93,16.5,8.28-3.76,17.32,0,24.25,5-5.52-5.62-9.75-6.58-17.5-7.75,3.01-64.15-92.55-81.91-114.75-23.75-12.9-10.61-33.04-4.41-40.75,9.75-8.73,16.03-2.08,32.55-3.5,33.5-12.69-.11-24.9,10.6-28.5,22.5-2.64,8.74.96,15.11-8.5,15.5.96-21.11-10.2-41.1-27.25-53.25-47.53-33.87-128.61,1.41-113.75,71.25-16.44-.56-34.22,8.82-43.5,22.5-.85,1.25-4.76,8.21-5,9-.3,1.01.58,1.43.5,1.75,1.3-2.26,2.2-4.75,3.5-7,12.05-20.95,38.87-31.37,61.25-21-2.51-14.69-1.18-28.67,5.75-42,26.08-50.17,100.49-32.54,97.75,39,22.22-18.56,48.39-6.29,45,23,13.71-8.94,30.52-5.68,30,12.5,5.49-5.93,10.89-8.54,18.5-4.5,12.03-12.76,27.79-3.5,26,13.5,11.2-2.62,17.66,4.05,18,15,6.87-3.69,12.95-.63,16.25,6-2.7-10.26-12.53-8.03-13-8.75,1.17-10.85-6.17-28.81-14.75-35.75-4.07-3.29-8.85-4.18-9.75-6-1,.03-2-.04-3,0-2.58.11-5.17-.08-7.75,0-2.1.39-4.94,1.8-6.75,2l-7.75,7c-1.16.08-3.88-5.55-4.75-6.5-4.56-4.98-8.5-8.43-15.5-9-1.81-.15-3.67-.06-5.25,1l-.75-.75c-.2-2.1.28-4.78,0-6.75-1-7.07-4.15-14.07-9.5-19-.24-.22-2.84-2.39-3-2.5-11.76-7.97-22.86-3.21-23.5-4.25Z"/>
      <path class="cls-4" d="m244.21,218.54c2.63-6.39-1.45-2.48-5-6.75-.89-.17-4.73-.93-5-1.25l-1.25-11.75c-9.62-.95-25.35-2.19-33-7.5-8.44,1.4-14.04-7.79-15-8-15.02,3.37-21.82-5.28-5.75-11.25l-5-13.5c-11.61,5.01-29.3-.45-36.5-10.5-10.56-14.74,1.63-19.01-3.5-27-3.45-5.38-11.14-2.07-14.25-3.75-14.27-23.99-23.19-15.3-47.25-19.5-6.93,13.33-8.26,27.31-5.75,42-22.38-10.37-49.2.05-61.25,21,2.26.94,5.15.3,7.5,1,5.61,1.66-.93,7.52,9,13.25-7.3,11.34,7.48,28.98,20.25,23.75,5.85,19.47,22.34,4.96,25,4.5,11.29-1.96,7.35,11.24,19.25,10,2.07-1.68,4.33-3.14,6.25-5,4.77,3.49,10.15,6.28,14.75,10,.62.5.98,1.04,1.5,1.5,11.06,9.7,6.51,10.86,10.25,14,9.87,8.29,58.13,10.84,71.5-7.5,24.02,22.58,42.97-2.73,45.25-4,.36-.74.81-1.68,1-2.5-.91-.23-1.9-.41-2.87-.48,3.51.09,6.57.42,9.87-.77Z"/>
      <path class="cls-1" d="m107.71,218.29c2,2.38-11.26,7.69-14.25,8.5-10.25,2.78-21.42,2.78-32,3,10.28-2.85,17.35-10.09,25.25-16.5-11.9,1.24-7.96-11.96-19.25-10-2.66.46-19.15,14.97-25-4.5-12.77,5.23-27.55-12.41-20.25-23.75-9.93-5.73-3.39-11.59-9-13.25-2.35-.7-5.24-.06-7.5-1-1.3,2.25-2.2,4.74-3.5,7-4.38,17.01-2.89,34.76,10.5,47.5,3.05,2.9,12.77,8.9,16.75,10.5,17.9,7.19,64.18,8.55,79.75-6-.52-.46-.88-1-1.5-1.5Z"/>
      <path class="cls-5" d="m93.46,226.79c2.99-.81,16.25-6.12,14.25-8.5-4.6-3.72-9.98-6.51-14.75-10-1.92,1.86-4.18,3.32-6.25,5-7.9,6.41-14.97,13.65-25.25,16.5,10.58-.22,21.75-.22,32-3Z"/>
      <path class="cls-6" d="m203.21,264.79c2.09-2.26.32-3.28,1-5.75,2.93-10.66,11.68-16.12,21-8.25.82-.19,2.91-3.97,4.25-5,14.16-10.9,37.02,4.22,33.5,26.5,8.74-4.1,14.35-.46,15.5,9,.45.34,4.93-3.92,10.75.5,1.22-1.95-2.81-2.93-6.5-3.25.86-10.96-8.16-16.19-18.25-13.75-.61-.46-.02-2.29-.25-3-.81-2.47-1.37-4.6-2.5-7-5.79-12.34-23.38-20.79-34.75-10.5-13.5-8.62-18.04-2.42-21.75-1.5-2.85,3.21-5.14,6.78-6.25,11-11.13-2.2-15.85,7.16-13.75,17,2.34.29,5.34,1.96,7.5,3,1.78-7.01,2.34-9.84,10.5-9Z"/>
      <path class="cls-1" d="m239.46,304.29c-.67-.24-7.18-.62-14-2.5-5.44-1.5-28.65-9.66-34.25-12-7.69-3.21-10.05-3.06-15.5-10.25-1.74-2.3.14-5.16-5.5-6.25-3.94,1.78-7.54,5.41-9,9.5-1.8,5.01-2.01,13.9,1,18.5.51.78,4.2,3.77,5.25,4,24.08.21,48.17-.28,72.25,0,0-.33.14-.86-.25-1Z"/>
      <path class="cls-2" d="m175.71,279.54c5.45,7.19,7.81,7.04,15.5,10.25-1.14-5.94-2.98-5.57-1-12,.6-1.95-.15-3.05,2.5-4-2.16-1.04-5.16-2.71-7.5-3-5.07-.63-10.44.44-15,2.5,5.64,1.09,3.76,3.95,5.5,6.25Z"/>
      <path class="cls-3" d="m289.21,281.79c-5.82-4.42-10.3-.16-10.75-.5-1.15-9.46-6.76-13.1-15.5-9,3.52-22.28-19.34-37.4-33.5-26.5-1.34,1.03-3.43,4.81-4.25,5-9.32-7.87-18.07-2.41-21,8.25-.68,2.47,1.09,3.49-1,5.75-1.69,1.82-2.8.46-3,2.25-.51,4.43,10.81,8.97,20.25,7.25-.03,11.05,21.92,11.17,34.5,18,.05.03.54-.81,1-.5,2.23,1.52.62,13.44,29,6,3.79,3.16-7.41,3.35-13.75,7.25-1.05,2.75,9.98-1.43,9.5.75,3.16-1.07,5.63-3.44,8.5-5,.34-1.54,2.59-3.85,3-5.5,1.12-4.52,1.08-10.4-3-13.5Z"/>
      <path class="cls-4" d="m271.21,305.04c6.34-3.9,17.54-4.09,13.75-7.25-28.38,7.44-26.77-4.48-29-6-.46-.31-.95.53-1,.5-12.58-6.83-34.53-6.95-34.5-18-9.44,1.72-20.76-2.82-20.25-7.25.2-1.79,1.31-.43,3-2.25-8.16-.84-8.72,1.99-10.5,9-2.65.95-1.9,2.05-2.5,4-1.98,6.43-.14,6.06,1,12,5.6,2.34,28.81,10.5,34.25,12,6.82,1.88,13.33,2.26,14,2.5.39.14.25.67.25,1,1,.01,2-.01,3,0,7.9.11,15.85.29,23.75,0,3.81,3.31,9.81,2,14.25.5.48-2.18-10.55,2-9.5-.75Z"/>
      <path class="cls-3" d="m404.71,66.79c-6.93-5.01-15.97-8.76-24.25-5,2.72-60.8-78.23-78.63-93-16.5-15.92-5.41-33.37,4.55-43.25,17,3.23,3.81,13.14,1.13,13.75,1.5-8.5,18.46,52.18,37.11,66.25,38.5,1.9,1.79,2.06,4.31,3,6.5,1.59,3.68,3.17,7.37,5.75,10.5,24.69-1.27,53.28,5.06,73.75-12.5.65-1.84,1.48-1.87,2-3,.57-1.25,3.21-4.27,4-7.25,2.85-10.8-.23-21.84-8-29.75Z"/>
      <path class="cls-4" d="m257.96,63.79c-.61-.37-10.52,2.31-13.75-1.5-4.19,5.28-8.36,12.64-9.5,19.25-.2.23-1.71-1.06-6-1.25-11.3-.51-21.28,6.17-26,16.5,1.66,1.04,12.79,2,13.25,2.5,1.78,1.95-2.53,6.61,4.75,9,.11-1.38,4.82-9.16,5.25-9.5.3-.24,6.16-2.1,7.25-2.5.7-.26,2.59-1.4,3.25-2,2.57,3.75,6.11,6.81,7.75,11,.85-1.11,3.6-6.96,4.75-7,.93,1.72,9.98,4.25,10.25,4.75.67,1.23-7.33,16.53,18.75,5.75l1.75,10.5c11.18-.28,27.29,2.33,36.25-4.5,8.37-6.38,5.94-15.34,11.25-6-.94-2.19-1.1-4.71-3-6.5-14.07-1.39-74.75-20.04-66.25-38.5Z"/>
      <path class="cls-2" d="m259.21,103.04c-.27-.5-9.32-3.03-10.25-4.75-1.15.04-3.9,5.89-4.75,7-1.64-4.19-5.18-7.25-7.75-11-.66.6-2.55,1.74-3.25,2-1.09.4-6.95,2.26-7.25,2.5-.43.34-5.14,8.12-5.25,9.5,1.15.38,1.75-1.04,2.5.25l-.5,8.75c.16.11,2.76,2.28,3,2.5,18.02.19,35.99-.05,54-.5l-1.75-10.5c-26.08,10.78-18.08-4.52-18.75-5.75Z"/>
      <path class="cls-1" d="m222.71,117.29l.5-8.75c-.75-1.29-1.35.13-2.5-.25-7.28-2.39-2.97-7.05-4.75-9-.46-.5-11.59-1.46-13.25-2.5-2.26,4.95-3.38,10.86-3.5,16.25.64,1.04,11.74-3.72,23.5,4.25Z"/>
    </g>
  </g>
</svg>