<?xml version="1.0" encoding="UTF-8"?>
<svg id="Layer_2" data-name="Layer 2" xmlns="http://www.w3.org/2000/svg" viewBox="0 0 332.28 273.52">
  <defs>
    <style>
      .cls-1 {
        fill: #fbf6f1;
        stroke-width: 0px;
      }
    </style>
  </defs>
  <g id="Layer_1-2" data-name="Layer 1">
    <g>
      <g>
        <path class="cls-1" d="m182.01,219.96c.62-.98-1.42-1.48-3.28-1.64.43-5.54-4.12-8.18-9.22-6.95-.31-.23,0-1.16-.13-1.52-.41-1.25-.69-2.32-1.26-3.54-2.93-6.23-11.81-10.5-17.55-5.3-6.82-4.36-9.11-1.22-10.99-.76-1.44,1.62-2.6,3.42-3.16,5.56-5.62-1.11-8.01,3.62-6.95,8.59-2.56-.32-5.27.22-7.58,1.26-1.99.9-3.81,2.74-4.55,4.8-.91,2.53-1.01,7.02.51,9.34.26.4,2.12,1.91,2.65,2.02,12.16.11,24.33-.14,36.49,0,.5,0,1.01,0,1.52,0,3.99.05,8.01.15,12,0,1.92,1.67,4.95,1.01,7.2.25,1.59-.54,2.84-1.74,4.29-2.53.17-.78,1.31-1.94,1.52-2.78.57-2.28.55-5.25-1.52-6.82Z"/>
        <path class="cls-1" d="m240.35,111.36c-2.79-2.84-4.93-3.33-8.84-3.91,1.52-32.4-46.75-41.37-57.96-12-6.52-5.36-16.69-2.23-20.58,4.92-4.41,8.09-1.05,16.44-1.77,16.92-6.41-.05-12.58,5.35-14.4,11.36-1.34,4.41.48,7.63-4.29,7.83.48-10.66-5.15-20.76-13.76-26.9-24.01-17.11-64.96.71-57.46,35.99-8.3-.28-17.29,4.45-21.97,11.36-.43.63-2.41,4.15-2.53,4.55-.15.51.29.72.25.88-2.21,8.59-1.46,17.56,5.3,23.99,1.54,1.46,6.45,4.5,8.46,5.3,9.04,3.63,32.42,4.32,40.28-3.03,5.59,4.9,3.29,5.49,5.18,7.07,4.99,4.19,29.36,5.47,36.11-3.79,12.13,11.4,21.71-1.38,22.86-2.02.18-.37.41-.85.51-1.26.48.12,3.18.91,3.28,1.14v5.81c7.91-.88,30.69-3.32,36.49-6.44.92-.5,3.41-2.43,3.91-3.28,0-.02.1.1.25-.25.58-1.34.38-4.36,0-5.81-1.37-5.18-6.33-4.06-6.57-4.42.59-5.48-3.12-14.55-7.45-18.06-2.05-1.66-4.47-2.11-4.92-3.03-.5.02-1.01-.02-1.52,0-1.3.05-2.61-.04-3.91,0-1.06.2-2.5.91-3.41,1.01l-3.91,3.54c-.59.04-1.96-2.8-2.4-3.28-2.3-2.52-4.29-4.26-7.83-4.55-.91-.07-1.85-.03-2.65.51l-.38-.38c-.1-1.06.14-2.42,0-3.41-.51-3.57-2.09-7.11-4.8-9.6,9.1.1,18.18-.02,27.28-.25,5.64-.14,13.78,1.18,18.31-2.27,4.23-3.22,3-7.75,5.68-3.03.8,1.86,1.6,3.72,2.9,5.3,12.47-.64,26.91,2.56,37.25-6.31.33-.93.75-.95,1.01-1.52.29-.63,1.62-2.16,2.02-3.66,1.44-5.46-.12-11.03-4.04-15.03Z"/>
      </g>
      <g>
        <path class="cls-1" d="m146.08,260.61c.62-.98-1.42-1.48-3.28-1.64.43-5.54-4.12-8.18-9.22-6.95-.31-.23,0-1.16-.13-1.52-.41-1.25-.69-2.32-1.26-3.54-2.93-6.23-11.81-10.5-17.55-5.3-6.82-4.36-9.11-1.22-10.99-.76-1.44,1.62-2.6,3.42-3.16,5.56-5.62-1.11-8.01,3.62-6.95,8.59-2.56-.32-5.27.22-7.58,1.26-1.99.9-3.81,2.74-4.55,4.8-.91,2.53-1.01,7.02.51,9.34.26.4,2.12,1.91,2.65,2.02,12.16.11,24.33-.14,36.49,0,.5,0,1.01,0,1.52,0,3.99.05,8.01.15,12,0,1.92,1.67,4.95,1.01,7.2.25,1.59-.54,2.84-1.74,4.29-2.53.17-.78,1.31-1.94,1.52-2.78.57-2.28.55-5.25-1.52-6.82Z"/>
        <path class="cls-1" d="m204.42,152.01c-2.79-2.84-4.93-3.33-8.84-3.91,1.52-32.4-46.75-41.37-57.96-12-6.52-5.36-16.69-2.23-20.58,4.92-4.41,8.09-1.05,16.44-1.77,16.92-6.41-.05-12.58,5.35-14.4,11.36-1.34,4.41.48,7.63-4.29,7.83.48-10.66-5.15-20.76-13.76-26.9-24.01-17.11-64.96.71-57.46,35.99-8.3-.28-17.29,4.45-21.97,11.36-.43.63-2.41,4.15-2.53,4.55-.15.51.29.72.25.88-2.21,8.59-1.46,17.56,5.3,23.99,1.54,1.46,6.45,4.5,8.46,5.3,9.04,3.63,32.42,4.32,40.28-3.03,5.59,4.9,3.29,5.49,5.18,7.07,4.99,4.19,29.36,5.47,36.11-3.79,12.13,11.4,21.71-1.38,22.86-2.02.18-.37.41-.85.51-1.26.48.12,3.18.91,3.28,1.14v5.81c7.91-.88,30.69-3.32,36.49-6.44.92-.5,3.41-2.43,3.91-3.28,0-.02.1.1.25-.25.58-1.34.38-4.36,0-5.81-1.37-5.18-6.33-4.06-6.57-4.42.59-5.48-3.12-14.55-7.45-18.06-2.05-1.66-4.47-2.11-4.92-3.03-.5.02-1.01-.02-1.52,0-1.3.05-2.61-.04-3.91,0-1.06.2-2.5.91-3.41,1.01l-3.91,3.54c-.59.04-1.96-2.8-2.4-3.28-2.3-2.52-4.29-4.26-7.83-4.55-.91-.07-1.85-.03-2.65.51l-.38-.38c-.1-1.06.14-2.42,0-3.41-.51-3.57-2.09-7.11-4.8-9.6,9.1.1,18.18-.02,27.28-.25,5.64-.14,13.78,1.18,18.31-2.27,4.23-3.22,3-7.75,5.68-3.03.8,1.86,1.6,3.72,2.9,5.3,12.47-.64,26.91,2.56,37.25-6.31.33-.93.75-.95,1.01-1.52.29-.63,1.62-2.16,2.02-3.66,1.44-5.46-.12-11.03-4.04-15.03Z"/>
      </g>
      <g>
        <path class="cls-1" d="m169.81,142.34c.62-.98-1.42-1.48-3.28-1.64.43-5.54-4.12-8.18-9.22-6.95-.31-.23,0-1.16-.13-1.52-.41-1.25-.69-2.32-1.26-3.54-2.93-6.23-11.81-10.5-17.55-5.3-6.82-4.36-9.11-1.22-10.99-.76-1.44,1.62-2.6,3.42-3.16,5.56-5.62-1.11-8.01,3.62-6.95,8.59-2.56-.32-5.27.22-7.58,1.26-1.99.9-3.81,2.74-4.55,4.8-.91,2.53-1.01,7.02.51,9.34.26.4,2.12,1.91,2.65,2.02,12.16.11,24.33-.14,36.49,0,.5,0,1.01,0,1.52,0,3.99.05,8.01.15,12,0,1.92,1.67,4.95,1.01,7.2.25,1.59-.54,2.84-1.74,4.29-2.53.17-.78,1.31-1.94,1.52-2.78.57-2.28.55-5.25-1.52-6.82Z"/>
        <path class="cls-1" d="m228.15,33.74c-2.79-2.84-4.93-3.33-8.84-3.91,1.52-32.4-46.75-41.37-57.96-12-6.52-5.36-16.69-2.23-20.58,4.92-4.41,8.09-1.05,16.44-1.77,16.92-6.41-.05-12.58,5.35-14.4,11.36-1.34,4.41.48,7.63-4.29,7.83.48-10.66-5.15-20.76-13.76-26.9-24.01-17.11-64.96.71-57.46,35.99-8.3-.28-17.29,4.45-21.97,11.36-.43.63-2.41,4.15-2.53,4.55-.15.51.29.72.25.88-2.21,8.59-1.46,17.56,5.3,23.99,1.54,1.46,6.45,4.5,8.46,5.3,9.04,3.63,32.42,4.32,40.28-3.03,5.59,4.9,3.29,5.49,5.18,7.07,4.99,4.19,29.36,5.47,36.11-3.79,12.13,11.4,21.71-1.38,22.86-2.02.18-.37.41-.85.51-1.26.48.12,3.18.91,3.28,1.14v5.81c7.91-.88,30.69-3.32,36.49-6.44.92-.5,3.41-2.43,3.91-3.28,0-.02.1.1.25-.25.58-1.34.38-4.36,0-5.81-1.37-5.18-6.33-4.06-6.57-4.42.59-5.48-3.12-14.55-7.45-18.06-2.05-1.66-4.47-2.11-4.92-3.03-.5.02-1.01-.02-1.52,0-1.3.05-2.61-.04-3.91,0-1.06.2-2.5.91-3.41,1.01l-3.91,3.54c-.59.04-1.96-2.8-2.4-3.28-2.3-2.52-4.29-4.26-7.83-4.55-.91-.07-1.85-.03-2.65.51l-.38-.38c-.1-1.06.14-2.42,0-3.41-.51-3.57-2.09-7.11-4.8-9.6,9.1.1,18.18-.02,27.28-.25,5.64-.14,13.78,1.18,18.31-2.27,4.23-3.22,3-7.75,5.68-3.03.8,1.86,1.6,3.72,2.9,5.3,12.47-.64,26.91,2.56,37.25-6.31.33-.93.75-.95,1.01-1.52.29-.63,1.62-2.16,2.02-3.66,1.44-5.46-.12-11.03-4.04-15.03Z"/>
      </g>
      <g>
        <path class="cls-1" d="m269.37,216.95c.62-.98-1.42-1.48-3.28-1.64.43-5.54-4.12-8.18-9.22-6.95-.31-.23,0-1.16-.13-1.52-.41-1.25-.69-2.32-1.26-3.54-2.93-6.23-11.81-10.5-17.55-5.3-6.82-4.36-9.11-1.22-10.99-.76-1.44,1.62-2.6,3.42-3.16,5.56-5.62-1.11-8.01,3.62-6.95,8.59-2.56-.32-5.27.22-7.58,1.26-1.99.9-3.81,2.74-4.55,4.8-.91,2.53-1.01,7.02.51,9.34.26.4,2.12,1.91,2.65,2.02,12.16.11,24.33-.14,36.49,0,.5,0,1.01,0,1.52,0,3.99.05,8.01.15,12,0,1.92,1.67,4.95,1.01,7.2.25,1.59-.54,2.84-1.74,4.29-2.53.17-.78,1.31-1.94,1.52-2.78.57-2.28.55-5.25-1.52-6.82Z"/>
        <path class="cls-1" d="m327.71,108.35c-2.79-2.84-4.93-3.33-8.84-3.91,1.52-32.4-46.75-41.37-57.96-12-6.52-5.36-16.69-2.23-20.58,4.92-4.41,8.09-1.05,16.44-1.77,16.92-6.41-.05-12.58,5.35-14.4,11.36-1.34,4.41.48,7.63-4.29,7.83.48-10.66-5.15-20.76-13.76-26.9-24.01-17.11-64.96.71-57.46,35.99-8.3-.28-17.29,4.45-21.97,11.36-.43.63-2.41,4.15-2.53,4.55-.15.51.29.72.25.88-2.21,8.59-1.46,17.56,5.3,23.99,1.54,1.46,6.45,4.5,8.46,5.3,9.04,3.63,32.42,4.32,40.28-3.03,5.59,4.9,3.29,5.49,5.18,7.07,4.99,4.19,29.36,5.47,36.11-3.79,12.13,11.4,21.71-1.38,22.86-2.02.18-.37.41-.85.51-1.26.48.12,3.18.91,3.28,1.14v5.81c7.91-.88,30.69-3.32,36.49-6.44.92-.5,3.41-2.43,3.91-3.28,0-.02.1.1.25-.25.58-1.34.38-4.36,0-5.81-1.37-5.18-6.33-4.06-6.57-4.42.59-5.48-3.12-14.55-7.45-18.06-2.05-1.66-4.47-2.11-4.92-3.03-.5.02-1.01-.02-1.52,0-1.3.05-2.61-.04-3.91,0-1.06.2-2.5.91-3.41,1.01l-3.91,3.54c-.59.04-1.96-2.8-2.4-3.28-2.3-2.52-4.29-4.26-7.83-4.55-.91-.07-1.85-.03-2.65.51l-.38-.38c-.1-1.06.14-2.42,0-3.41-.51-3.57-2.09-7.11-4.8-9.6,9.1.1,18.18-.02,27.28-.25,5.64-.14,13.78,1.18,18.31-2.27,4.23-3.22,3-7.75,5.68-3.03.8,1.86,1.6,3.72,2.9,5.3,12.47-.64,26.91,2.56,37.25-6.31.33-.93.75-.95,1.01-1.52.29-.63,1.62-2.16,2.02-3.66,1.44-5.46-.12-11.03-4.04-15.03Z"/>
      </g>
    </g>
  </g>
</svg>