<?xml version="1.0" encoding="UTF-8"?>
<svg id="Layer_2" data-name="Layer 2" xmlns="http://www.w3.org/2000/svg" viewBox="0 0 413.75 307.36">
  <defs>
    <style>
      .cls-1 {
        fill: #fbf6f1;
        stroke-width: 0px;
      }
    </style>
  </defs>
  <g id="Layer_1-2" data-name="Layer 1">
    <g>
      <path class="cls-1" d="m289.21,281.79c1.22-1.95-2.81-2.93-6.5-3.25.86-10.96-8.16-16.19-18.25-13.75-.61-.46-.02-2.29-.25-3-.81-2.47-1.37-4.6-2.5-7-5.79-12.34-23.38-20.79-34.75-10.5-13.5-8.62-18.04-2.42-21.75-1.5-2.85,3.21-5.14,6.78-6.25,11-11.13-2.2-15.85,7.16-13.75,17-5.07-.63-10.44.44-15,2.5-3.94,1.78-7.54,5.41-9,9.5-1.8,5.01-2.01,13.9,1,18.5.51.78,4.2,3.77,5.25,4,24.08.21,48.17-.28,72.25,0,1,.01,2-.01,3,0,7.9.11,15.85.29,23.75,0,3.81,3.31,9.81,2,14.25.5,3.16-1.07,5.63-3.44,8.5-5,.34-1.54,2.59-3.85,3-5.5,1.12-4.52,1.08-10.4-3-13.5Z"/>
      <path class="cls-1" d="m404.71,66.79c-5.52-5.62-9.75-6.58-17.5-7.75,3.01-64.15-92.55-81.91-114.75-23.75-12.9-10.61-33.04-4.41-40.75,9.75-8.73,16.03-2.08,32.55-3.5,33.5-12.69-.11-24.9,10.6-28.5,22.5-2.64,8.74.96,15.11-8.5,15.5.96-21.11-10.2-41.1-27.25-53.25-47.53-33.87-128.61,1.41-113.75,71.25-16.44-.56-34.22,8.82-43.5,22.5-.85,1.25-4.76,8.21-5,9-.3,1.01.58,1.43.5,1.75-4.38,17.01-2.89,34.76,10.5,47.5,3.05,2.9,12.77,8.9,16.75,10.5,17.9,7.19,64.18,8.55,79.75-6,11.06,9.7,6.51,10.86,10.25,14,9.87,8.29,58.13,10.84,71.5-7.5,24.02,22.58,42.97-2.73,45.25-4,.36-.74.81-1.68,1-2.5.95.23,6.29,1.8,6.5,2.25v11.5c15.66-1.74,60.77-6.57,72.25-12.75,1.83-.98,6.74-4.82,7.75-6.5.02-.03.2.19.5-.5,1.15-2.66.75-8.64,0-11.5-2.7-10.26-12.53-8.03-13-8.75,1.17-10.85-6.17-28.81-14.75-35.75-4.07-3.29-8.85-4.18-9.75-6-1,.03-2-.04-3,0-2.58.11-5.17-.08-7.75,0-2.1.39-4.94,1.8-6.75,2l-7.75,7c-1.16.08-3.88-5.55-4.75-6.5-4.56-4.98-8.5-8.43-15.5-9-1.81-.15-3.67-.06-5.25,1l-.75-.75c-.2-2.1.28-4.78,0-6.75-1-7.07-4.15-14.07-9.5-19,18.02.19,35.99-.05,54-.5,11.18-.28,27.29,2.33,36.25-4.5,8.37-6.38,5.94-15.34,11.25-6,1.59,3.68,3.17,7.37,5.75,10.5,24.69-1.27,53.28,5.06,73.75-12.5.65-1.84,1.48-1.87,2-3,.57-1.25,3.21-4.27,4-7.25,2.85-10.8-.23-21.84-8-29.75Z"/>
    </g>
  </g>
</svg>