<?xml version="1.0" encoding="UTF-8"?>
<svg id="Layer_2" data-name="Layer 2" xmlns="http://www.w3.org/2000/svg" viewBox="0 0 402.2 153.4">
  <defs>
    <style>
      .cls-1 {
        fill: #4db7cd;
      }

      .cls-1, .cls-2 {
        stroke-width: 0px;
      }

      .cls-2 {
        fill: #86cdde;
      }
    </style>
  </defs>
  <g id="Layer_1-2" data-name="Layer 1">
    <g>
      <path class="cls-2" d="m342.11,120c-1.2.49-4.11.83-6.5,1.5,15.12,4.03,34.46,4.15,49.25,9,13.24,4.34,6.09,6.6-11,10-18.61,3.7-82.29,7.44-104,8-47.44,1.23-95.04-1.73-142.5-.5-28.36-2.55-57.24-1.87-85.5-5.5-4.22-.54-30.57-4.64-31.25-7.75-.76-3.47,10.14-5.6,12.75-6.25,16.39-4.05,33.58-4.26,50.25-6.5-.29-.12-5.12-2.74-5.5-3-9.61,2.03-20.35,1.26-30.25,2.5-6.69.84-30.87,5.63-35.5,9-6.5,4.72,1.97,9.33,6.5,11,23.37,8.61,77.72,8.01,104.5,11,61.01,1.63,121.99.69,183,0,16.59-1.71,33.41-1.46,50-3,9.82-.91,48.05-5.1,54-11,13.45-13.34-51.07-17.32-58.25-18.5Z"/>
      <path class="cls-1" d="m10.61,134.75c.68,3.11,27.03,7.21,31.25,7.75,28.26,3.63,57.14,2.95,85.5,5.5,47.46-1.23,95.06,1.73,142.5.5,21.71-.56,85.39-4.3,104-8,17.09-3.4,24.24-5.66,11-10-14.79-4.85-34.13-4.97-49.25-9-15.04,4.23-35.32,4.84-50.75,2.5-4.27-.65-8.67-2.62-12.75-3.5-1.69,3.07-26.47,4.25-28.5,1-11.55,1.84-9.53,3.23-30.25,3.5-15.81.21-32.28.33-47.5-4-12.27-1.44-18.7,5.39-37,4-4.63-.35-9.49-1.9-14-3-11.19,4.9-30.16,4.47-41.25,0-16.67,2.24-33.86,2.45-50.25,6.5-2.61.65-13.51,2.78-12.75,6.25Z"/>
      <path class="cls-1" d="m183.86,90.5c-25.55,36.43,8.39,39.11,8.75,20.75.09-4.64-7.63-20.91-8.75-20.75Z"/>
      <path class="cls-1" d="m80.11,67.25c1.38-7.36-4.3-16.46-7.75-22.75-24.22,33.32,5.2,36.35,7.75,22.75Z"/>
      <path class="cls-1" d="m207.11,64.75c1.52-7.92-4.34-15.74-8.25-22.25-22.98,32.79,5.73,35.38,8.25,22.25Z"/>
      <path class="cls-1" d="m224.11,91.25c3.4-7.8-2.78-17.77-7.25-24.25-22.21,32.98,2.97,34.07,7.25,24.25Z"/>
      <path class="cls-1" d="m109.36,44.5c-.98.12-8.61,16.77-8.75,17.75-2.79,19.58,32.77,15.12,8.75-17.75Z"/>
      <path class="cls-1" d="m320.61,20.75c.38-5.3-6.99-19.66-8.25-19.25-22.23,31.84,7.15,34.59,8.25,19.25Z"/>
      <path class="cls-1" d="m358.11,18.25c-.85-2.47-4.35-7.42-5.75-10.25-25.23,33.11,14.48,35.71,5.75,10.25Z"/>
      <path class="cls-1" d="m185.11,25.25c-.46-1.57-5.29-9.96-6.75-12.75-23.58,34.46,12.91,33.98,6.75,12.75Z"/>
      <path class="cls-1" d="m227.11,32.75c.44-4.86-5.3-14.18-7.75-18.75-20.91,30.8,6.6,31.35,7.75,18.75Z"/>
      <path class="cls-1" d="m133.61,97.25c1.13-6.75-4.21-15.51-7.75-21.25-23.33,31.91,5.64,33.79,7.75,21.25Z"/>
      <path class="cls-1" d="m142.11,27.75c-.31-1.83-5.66-10.9-7.25-13.75-21.4,32.49,10.47,32.89,7.25,13.75Z"/>
      <path class="cls-1" d="m48.86,0c-3.07,6.19-10.93,14.65-7.25,21.75,4.53,8.73,24.58,2.08,7.25-21.75Z"/>
      <path class="cls-1" d="m246.61,55.75c-.32-2.28-5.71-10.01-7.25-12.75-18.55,27.23,9.37,27.8,7.25,12.75Z"/>
      <path class="cls-1" d="m256.61,87.75c-.11-.72-6.05-12.18-6.75-12.25-18.53,25.62,9.07,27.64,6.75,12.25Z"/>
      <path class="cls-1" d="m155.36,45.5c-2.82,5.67-9.41,14.35-8.25,20.75,2.19,12.1,29.72,7.43,8.25-20.75Z"/>
      <path class="cls-1" d="m170.61,86.25c-.16-1.05-5.66-11.51-6.25-11.25-16.2,24.89,8.51,26.27,6.25,11.25Z"/>
      <path class="cls-1" d="m266.36,20c-1.58,3.06-7.94,14.32-8.25,16.25-3.28,20.29,31.79,14.24,8.25-16.25Z"/>
      <path class="cls-1" d="m285.36,42.5c-3.12,5.38-11.03,16.49-5,22,6.54,5.98,20.56-2.47,5-22Z"/>
      <path class="cls-1" d="m265.11,90.75c-.51,11.56,21.92,8.07,6.75-12.75-1.47,2.87-6.63,10.05-6.75,12.75Z"/>
      <path class="cls-1" d="m328.36,48c-.62,0-6.11,9.61-6.25,10.75-1.67,13.64,21.22,8.19,6.25-10.75Z"/>
    </g>
  </g>
</svg>